<?xml version="1.0" encoding="UTF-8"?>
<svg width="1920px" height="1200px" viewBox="0 0 1920 1200" xmlns="http://www.w3.org/2000/svg" xmlns:xlink="http://www.w3.org/1999/xlink" version="1.1">
  <path d="M732.009 243.622 C1023.284 -47.799 1357.197 27.705 1478.281 335.519 1488.763 362.168 1502.433 386.531 1508.658 389.66 1514.883 392.788 1542.891 406.392 1570.899 419.89 1857.714 558.12 1818.194 974.356 1508.611 1075.925 1462.336 1091.107 425.19 1099.999 332.773 1086.006 9.601 1037.075 3.206 558.056 325.04 506.753 356.491 501.74 358.44 499.749 386.919 443.57 446.441 326.154 551.353 253.501 670.816 246.968 L732.009 243.622 Z M1383.597 499.095 C1349.847 336.632 1322.164 285.501 1251.215 235.933 1099.044 129.622 891.615 191.691 811.507 367.507 803.338 385.437 801.024 385.872 714.537 385.719 569.51 385.464 498.937 439.941 478.051 568.269 465.816 643.446 470.535 639.38 395.531 639.38 215.771 639.38 142.993 841.783 290.776 930.719 L322.872 950.034 902.482 948.133 C1446.795 946.348 1483.791 945.388 1509.971 932.364 1702.595 836.536 1657.605 555.227 1442.61 511.184 L1383.597 499.095 Z" fill="#808080" stroke="none" />
  <path d="M572 519 L1338.937 519 1336.023 634.148 C1332.85 759.541 1330.045 771.637 1295.185 810.223 1232.488 879.621 1025.393 871.56 976.595 797.822 956.224 767.038 945.506 765.421 932.213 791.127 904.015 845.656 791.451 872.289 682.282 850.261 592.768 832.199 572 791.234 572 632.734 L572 519 Z M1240.182 622.795 L661.403 622.795 663.895 672.153 C667.437 742.296 673.05 746.052 774.321 746.052 L851.948 746.052 870.963 724.969 C881.421 713.373 895.688 697.317 902.668 689.289 933.533 653.788 995.229 671.452 1032.823 726.553 1048.314 749.259 1133.075 759.761 1191.528 746.218 1229.952 737.315 1240.182 720.761 1240.182 667.487 L1240.182 622.795 Z" fill="#808080" stroke="none" />
</svg>
